<svg xmlns="http://www.w3.org/2000/svg" width="18" height="18" viewBox="0 0 15 15"><path fill-rule="evenodd" d="M 4.592203 1.217905 L 5.781546 4.139448 Q 3.4864259 6.257562 1.1362891 8.891211 Q 0.12228131 10.339285 0.20098174 11.756949 Q 0.4510951 13.320697 2.7591214 14.796282 L 10.953898 14.947097 Q 12.308259 14.960829 13.549037 14.2982235 Q 14.960103 12.688436 14.995747 10.026571 Q 12.921394 6.824004 10.583553 4.297935 L 12.139488 1.4234796 Q 11.6222 0.3000033 10.307318 0.109817624 Q 8.949586 0.2803644 7.976928 0.58592767 L 7.79813 5.503377 L 8.603419 10.26802 L 11.507507 10.423358 L 8.010222 13.100604 L 4.068326 10.506881 L 7.2343864 10.247975 L 7.8026633 5.504119 L 7.976354 0.58751684 Q 6.2737155 1.097259 4.776061 1.1966896 Z"/></svg>
