<svg xmlns="http://www.w3.org/2000/svg" width="18" height="18" viewBox="0 0 15 15"><path fill-rule="evenodd" d="M 4.65769 1.1358562 L 5.881998 4.007033 Q 3.5771706 6.1712446 1.1831946 8.942677 Q 0.18804121 10.530959 0.28845358 11.657584 Q 0.91929996 13.357028 2.7719312 14.597817 L 10.878319 14.798141 Q 12.466758 14.73047 13.599605 14.086115 Q 14.949442 12.571015 14.994927 9.960819 Q 13.193349 6.9738946 10.603347 4.096965 L 12.119723 1.2564842 Q 11.705385 0.15705949 10.38697 0.031237409 Q 9.826067 0.10003939 9.089652 0.21340322 L 8.463515 6.298842 L 12.163187 8.877114 L 9.417399 9.121652 L 8.292217 13.688745 L 7.1853085 9.22501 L 4.5113335 8.983127 L 8.465503 6.2965655 L 9.087698 0.2129578 Q 8.204845 0.43669045 6.4693375 0.93967676 Z"/></svg>
